REM DIRINDEX 1\2,1\3
REM DIRNAME folder01,folder02,folder03
TITLE ""
FILE "Disk2Track13.mp3" MP3
  TRACK 01 AUDIO
    TITLE "2:cjc052_0632"
    INDEX 01 00:00:00
  TRACK 02 AUDIO
    TITLE "2:cjc052_0633"
    INDEX 01 00:03:45
  TRACK 03 AUDIO
    TITLE "2:cjc052_0634"
    INDEX 01 00:14:56
  TRACK 04 AUDIO
    TITLE "0:"
    INDEX 01 00:22:60
